<?xml version="1.0" standalone="no"?>
<!DOCTYPE svg PUBLIC "-//W3C//DTD SVG 20010904//EN"
 "http://www.w3.org/TR/2001/REC-SVG-20010904/DTD/svg10.dtd">
<svg version="1.0" xmlns="http://www.w3.org/2000/svg"
 width="512.000000pt" height="512.000000pt" viewBox="0 0 512.000000 512.000000"
 preserveAspectRatio="xMidYMid meet">
<metadata>
Created by potrace 1.11, written by Peter Selinger 2001-2013
</metadata>
<g transform="translate(0.000000,512.000000) scale(0.100000,-0.100000)"
fill="#000000" stroke="none">
<path d="M860 3355 l0 -95 285 0 285 0 0 -795 0 -795 115 0 115 0 0 795 0 795
285 0 285 0 0 95 0 95 -685 0 -685 0 0 -95z"/>
<path d="M2500 2560 l0 -890 115 0 115 0 0 362 c0 199 -5 503 -11 677 -6 174
-9 331 -7 350 2 26 61 -110 290 -675 l286 -709 89 -3 c85 -3 90 -2 100 20 5
13 136 334 289 713 209 516 280 682 282 660 2 -16 -1 -187 -7 -380 -6 -192
-11 -500 -11 -682 l0 -333 115 0 115 0 0 890 0 890 -149 0 -149 0 -288 -720
c-158 -396 -291 -720 -294 -720 -3 0 -136 324 -294 720 l-288 720 -149 0 -149
0 0 -890z"/>
</g>
</svg>
